<?xml version="1.0" encoding="iso-8859-1"?>
<!-- Generator: Hand-crafted, deeply imaginative SVG logic (Redux 4 - Vastly Simple Object). -->
<svg version="1.1" id="Layer_1" xmlns="http://www.w3.org/2000/svg" xmlns:xlink="http://www.w3.org/1999/xlink" x="0px" y="0px"
	 viewBox="-44 -44 600 600" style="enable-background:new 0 0 512 512;" xml:space="preserve">

<!-- Circular backdrop: Match original exact blue for consistent grounding -->
<path style="fill:#5e73dd;" d="M512 256c0 141.385-114.615 256-256 256S0 397.385 0 256 114.615 0 256 0s256 114.615 256 256z"/>

<!-- The Main Object: A Single, Thick High-Tech Glass Pane (The Phantom Zone) -->
<g>
  <!-- Deep inner glass shadow/core -->
  <polygon fill="#1C1126" points="256,-20 90,200 200,480 400,380 440,150" opacity="0.8"/>
  
  <!-- Back Glass Panes giving depth -->
  <polygon fill="#3D1E62" points="256,-20 110,200 220,460 380,360 420,150"/>
  <polygon fill="#67215B" points="256,10 140,200 230,440 360,340 390,150"/>
</g>

<!-- The Phantom of the Opera Face / Silhouette (Sealed Inside) -->
<!-- Scaled down and centered perfectly inside the main object, no borders broken by the mask itself -->
<g transform="translate(256, 230) scale(0.9) translate(-256, -230)">
  <!-- Shadow/Dark Head Shape -->
  <path fill="#020105" opacity="0.9" d="M 256 100 
           C 200 100, 160 150, 160 220 
           L 160 300 
           C 160 350, 200 400, 256 400 
           C 310 400, 350 350, 350 300 
           L 350 220 
           C 350 150, 310 100, 256 100 Z"/>

  <!-- The Classic White Asymmetric Half-Mask -->
  <path fill="#FFFFFF" d="M 256 105 
           C 290 105, 330 140, 340 210 
           C 345 250, 340 290, 310 320 
           C 280 350, 250 350, 230 330
           C 220 320, 220 290, 250 250
           C 280 210, 250 150, 220 180
           C 200 200, 180 230, 175 270
           C 170 300, 180 310, 190 310
           C 180 340, 165 310, 165 250
           C 165 150, 210 105, 256 105 Z"/>

  <!-- Left Eye Hole (Simple black oval to show empty shadow) -->
  <ellipse cx="215" cy="210" rx="12" ry="18" fill="#020105"/>
  
  <!-- Right Eye Hole (Cut out) -->
  <ellipse cx="290" cy="210" rx="18" ry="14" fill="#020105"/>
</g>

<!-- The Main Object: Front Glass Layers -->
<!-- Wrapping the mask and breaking the circular bounds (Top and Bottom) -->
<g opacity="0.8">
  <polygon fill="#1E9682" points="256,-20 256,200 420,150 256,10" opacity="0.5"/>
  <polygon fill="#1E9682" points="256,-20 110,200 256,200 256,10" opacity="0.6"/>
  <polygon fill="#82E1E1" points="256,200 110,200 220,460 256,420" opacity="0.5"/>
  <polygon fill="#B4FFFA" points="256,200 420,150 380,360 256,420" opacity="0.4"/>
</g>

<!-- Highlighting / Glass Glare on the Main Prison Pane -->
<polygon fill="#FFFFFF" points="256,-20 280,30 256,460 230,30" opacity="0.2"/>
<polygon fill="#FFFFFF" points="110,200 130,220 380,360 400,320" opacity="0.1"/>
<polygon fill="#FFFFFF" points="256,-20 160,180 200,180 280,20" opacity="0.15"/>
<polygon fill="#FFFFFF" points="150,190 220,460 240,460 170,190" opacity="0.15"/>

</svg>